<mxfile host="app.diagrams.net" modified="2024-03-23T13:13:11.030Z" agent="Mozilla/5.0 (Windows NT 10.0; Win64; x64) AppleWebKit/537.36 (KHTML, like Gecko) Chrome/123.0.0.0 Safari/537.36" version="24.0.9" etag="87024_WsymCpCBiJIFoZ" type="github">
  <diagram name="第 1 页" id="ueI6bPMTDc-5GMdFhD8w">
    <mxGraphModel>
      <root>
        <mxCell id="0" />
        <mxCell id="1" parent="0" />
      </root>
    </mxGraphModel>
  </diagram>
</mxfile>
